<?xml version="1.0" encoding="UTF-8" standalone="no"?>
<!-- Created with Inkscape (http://www.inkscape.org/) -->

<svg
   width="128"
   height="128"
   viewBox="0 0 33.866666 33.866668"
   version="1.1"
   id="svg5"
   inkscape:version="1.2.2 (b0a8486541, 2022-12-01)"
   sodipodi:docname="icon.svg"
   inkscape:export-filename="icon.png"
   inkscape:export-xdpi="96"
   inkscape:export-ydpi="96"
   xmlns:inkscape="http://www.inkscape.org/namespaces/inkscape"
   xmlns:sodipodi="http://sodipodi.sourceforge.net/DTD/sodipodi-0.dtd"
   xmlns="http://www.w3.org/2000/svg"
   xmlns:svg="http://www.w3.org/2000/svg">
  <sodipodi:namedview
     id="namedview7"
     pagecolor="#ffffff"
     bordercolor="#666666"
     borderopacity="1.0"
     inkscape:pageshadow="2"
     inkscape:pageopacity="0.0"
     inkscape:pagecheckerboard="true"
     inkscape:document-units="px"
     showgrid="false"
     units="px"
     width="128px"
     inkscape:zoom="5.9508978"
     inkscape:cx="60.327032"
     inkscape:cy="61.671367"
     inkscape:window-width="1920"
     inkscape:window-height="1025"
     inkscape:window-x="0"
     inkscape:window-y="27"
     inkscape:window-maximized="1"
     inkscape:current-layer="g10374"
     inkscape:showpageshadow="2"
     inkscape:deskcolor="#d1d1d1" />
  <defs
     id="defs2" />
  <g
     inkscape:label="图层 1"
     inkscape:groupmode="layer"
     id="layer1">
    <g
       id="g10374"
       transform="translate(0.03319894,-0.06182756)">
      <rect
         style="fill:#dbc0f1;fill-opacity:1;stroke:#21262e;stroke-width:1.04997;stroke-linejoin:round;stroke-miterlimit:4;stroke-dasharray:none;stroke-opacity:1;stop-color:#000000"
         id="rect926"
         width="22.762537"
         height="29.377117"
         x="5.5188661"
         y="2.3066025"
         ry="3.1518908" />
      <path
         d="m 23.817999,15.444531 c 0,0 -0.02298,-0.140998 -0.03642,-0.139725 l -2.558476,0.246853 c -0.203578,0.01966 -0.361688,0.18201 -0.375972,0.386012 l -0.07029,1.007424 -1.97935,0.14121 -0.134634,-0.913024 c -0.02998,-0.203082 -0.207326,-0.356172 -0.4126,-0.356172 h -2.700323 c -0.205204,0 -0.382548,0.15309 -0.412529,0.356172 l -0.134705,0.913024 -1.979351,-0.14121 -0.07029,-1.007424 c -0.01428,-0.204072 -0.172394,-0.366425 -0.375971,-0.386083 l -2.559749,-0.246782 c -0.01322,-0.0013 -0.02291,0.139866 -0.036133,0.139866 l -0.00346,0.55367 2.167866,0.349596 0.07099,1.016404 c 0.01436,0.20577 0.180385,0.372154 0.386296,0.386932 l 2.725991,0.194456 c 0.01032,7.08e-4 0.02051,0.0011 0.03069,0.0011 0.204851,0 0.381912,-0.153161 0.411894,-0.356244 l 0.138523,-0.93947 h 1.980269 l 0.138524,0.93947 c 0.02991,0.203012 0.207184,0.356173 0.412317,0.356173 0.01004,0 0.02008,-3.53e-4 0.02991,-0.0011 l 2.726344,-0.194456 c 0.205841,-0.01478 0.371942,-0.181162 0.386296,-0.386932 l 0.07092,-1.016404 2.166948,-0.351152 z"
         fill="#ffffff"
         stroke-width="0.0226495"
         id="path2595" />
      <path
         d="m 15.308065,4.8435271 c -0.03857,-0.00172 -0.07712,0.00276 -0.114805,0.011032 -0.746673,0.1659962 -1.497568,0.3994768 -2.211559,0.7588595 -0.165298,0.083205 -0.267714,0.2543551 -0.262939,0.439347 0.01289,0.4975921 0.0563,0.9816702 0.1111,1.47023 -0.18575,0.1111812 -0.371311,0.2123648 -0.57604,0.3767407 C 12.108075,8.0116587 11.945531,8.153695 11.786533,8.2852164 11.416153,8.0526148 11.041929,7.8211165 10.645572,7.6216452 10.45553,7.5259604 10.2251,7.5673991 10.080306,7.7233114 9.5413786,8.3033156 9.029083,8.9378935 8.6060426,9.6578654 c -0.089745,0.1528613 -0.087542,0.3428176 0.00572,0.4935586 0.2797803,0.452568 0.5777633,0.875557 0.8915014,1.285721 v 5.137608 c 0,1.417432 0.943231,2.498735 2.292403,3.143758 1.349137,0.645127 3.134622,0.939835 5.098135,0.946713 h 0.0128 c 1.963513,-0.0069 3.748964,-0.301551 5.097791,-0.946713 1.348827,-0.645161 2.291713,-1.726498 2.291713,-3.143758 l 6.72e-4,-5.004191 c 0.318668,-0.467444 0.583055,-0.91946 0.891829,-1.418724 0.09313,-0.150655 0.09533,-0.340439 0.0057,-0.4932142 C 24.771376,8.9386002 24.258615,8.3037466 23.719722,7.7237251 23.574983,7.5679679 23.344757,7.5265292 23.154801,7.6220417 22.758599,7.8214785 22.384237,8.0533733 22.01384,8.2859576 21.854863,8.15435 21.692793,8.0122965 21.546551,7.9001327 c -5.86e-4,0 -0.0011,0 -0.0017,-0.00172 C 21.340501,7.734485 21.155561,7.6334738 20.9705,7.522689 c 0.05466,-0.4885081 0.09815,-0.9727068 0.111101,-1.47023 0.0048,-0.1850091 -0.09764,-0.3561593 -0.26294,-0.4393642 -0.714025,-0.359331 -1.464852,-0.5928289 -2.211904,-0.7588423 -0.20147,-0.044731 -0.408888,0.044869 -0.514433,0.2222074 -0.24141,0.405734 -0.448465,0.8369105 -0.648764,1.2628295 -0.178442,-0.016203 -0.359538,-0.041025 -0.532274,-0.043093 -0.0019,-1.72e-5 -0.0038,-1.72e-5 -0.0057,0 h -0.01044 c -0.0019,-1.72e-5 -0.0038,-1.72e-5 -0.0057,0 -0.173081,0.00207 -0.354418,0.026821 -0.532946,0.043093 C 16.164238,5.9303283 15.964026,5.518044 15.733303,5.126617 15.725671,5.1092762 15.717014,5.092418 15.70738,5.0761114 15.623258,4.9348509 15.472451,4.8467333 15.308093,4.8428032 Z"
         fill="#ffffff"
         id="path2597"
         style="stroke-width:0.172374;fill:#21262e;fill-opacity:1" />
      <path
         d="m 15.29686,5.3089371 c -0.720127,0.1600838 -1.43248,0.3829634 -2.100378,0.7191273 0.01528,0.5897433 0.0534,1.1547854 0.130689,1.7287393 -0.259371,0.1661858 -0.531946,0.3088081 -0.774218,0.503315 -0.24615,0.1893529 -0.49754,0.3705353 -0.720437,0.5920014 -0.44526,-0.2945183 -0.91653,-0.5712648 -1.402039,-0.8155878 -0.5233275,0.563215 -1.012663,1.1710921 -1.4123812,1.8512973 0.300741,0.4864744 0.6146859,0.9425064 0.9536767,1.3752694 h 0.00949 v 4.174899 c 0.00763,6.9e-5 0.015264,0 0.022827,0.0017 l 2.55941,0.246788 c 0.134067,0.01293 0.239134,0.120834 0.248476,0.255182 l 0.07893,1.129826 2.23259,0.159274 0.153812,-1.042743 c 0.01994,-0.13521 0.135904,-0.235411 0.272662,-0.235411 h 2.700239 c 0.136683,0 0.252649,0.100201 0.272592,0.235411 l 0.153812,1.042743 2.232761,-0.159274 0.07887,-1.129826 c 0.0094,-0.134348 0.114403,-0.242185 0.248477,-0.255182 l 2.558376,-0.246788 c 0.0076,0 0.01513,-0.0017 0.02276,-0.0017 v -0.33313 h 0.001 v -3.841356 h 0.0095 C 24.167402,10.830767 24.48114,10.374735 24.782019,9.8882433 24.382439,9.2080208 23.892828,8.6001265 23.3695,8.036946 22.884147,8.281269 22.412704,8.5580328 21.967427,8.8525338 21.744616,8.6310677 21.493657,8.4499025 21.247162,8.2605496 21.004976,8.0660083 20.732057,7.9234032 20.473185,7.7572347 20.550261,7.1832635 20.588364,6.6182042 20.603709,6.0284953 19.935776,5.6923487 19.22351,5.4694518 18.502986,5.309368 18.215328,5.7928255 17.952268,6.3163427 17.723166,6.8281558 17.451487,6.7827697 17.17855,6.765946 16.905251,6.7626881 h -0.0053 -0.0052 c -0.273798,0.00328 -0.546494,0.020082 -0.818242,0.065468 C 15.847559,6.3163427 15.584654,5.7928255 15.296565,5.309368 Z M 9.9770523,15.990267 c 9.946e-4,0.24734 0.00421,0.518329 0.00421,0.572282 0,2.430647 3.0834277,3.598826 6.9142677,3.612271 h 0.0094 c 3.830841,-0.01345 6.913234,-1.181693 6.913234,-3.612271 0,-0.05495 0.0033,-0.324821 0.0044,-0.572282 l -2.300505,0.22188 -0.07929,1.135859 c -0.0095,0.136882 -0.118442,0.245823 -0.255338,0.255648 l -2.726268,0.194541 h -0.01987 c -0.135481,0 -0.252373,-0.09941 -0.272385,-0.235463 L 18.012604,16.50246 h -2.224487 l -0.156334,1.060272 c -0.021,0.142674 -0.14858,0.245272 -0.292261,0.234722 L 12.613255,17.60293 c -0.136897,-0.0098 -0.245789,-0.118748 -0.255338,-0.255648 l -0.07926,-1.135876 z"
         fill="#478cbf"
         id="path2599"
         style="stroke-width:0.172374;fill:#c38ef1;fill-opacity:1" />
      <g
         fill="#ffffff"
         stroke-width="0.32031"
         id="g2607"
         transform="matrix(0.17237405,0,0,0.17237405,8.2814088,-172.13291)">
        <path
           d="m 0,0 c 0,-12.052 -9.765,-21.815 -21.813,-21.815 -12.042,0 -21.81,9.763 -21.81,21.815 0,12.044 9.768,21.802 21.81,21.802 C -9.765,21.802 0,12.044 0,0"
           transform="matrix(0.41022,0,0,-0.41022,37.9,1073.8)"
           id="path2601" />
        <path
           d="m 0,0 c -3.878,0 -7.021,2.858 -7.021,6.381 v 20.081 c 0,3.52 3.143,6.381 7.021,6.381 3.878,0 7.028,-2.861 7.028,-6.381 V 6.381 C 7.028,2.858 3.878,0 0,0"
           transform="matrix(0.41022,0,0,-0.41022,50,1083.6)"
           id="path2603" />
        <path
           d="m 0,0 c 0,-12.052 9.765,-21.815 21.815,-21.815 12.041,0 21.808,9.763 21.808,21.815 0,12.044 -9.767,21.802 -21.808,21.802 C 9.765,21.802 0,12.044 0,0"
           transform="matrix(0.41022,0,0,-0.41022,62.101,1073.8)"
           id="path2605" />
      </g>
      <path
         d="m 13.419362,12.031525 c -0.565404,0 -1.023816,0.458532 -1.023816,1.023798 0,0.565284 0.458412,1.023402 1.023816,1.023402 0.565697,0 1.02385,-0.458118 1.02385,-1.023402 0,-0.565266 -0.458153,-1.023798 -1.02385,-1.023798 z m 6.960981,0 c -0.565266,0 -1.023246,0.458532 -1.023246,1.023798 0,0.565284 0.45798,1.023402 1.023246,1.023402 0.565835,0 1.023833,-0.458118 1.023833,-1.023402 0,-0.565266 -0.458015,-1.023798 -1.023833,-1.023798 z"
         fill="#414042"
         id="path2609"
         style="stroke-width:0.172374;fill:#21262e;fill-opacity:1" />
      <text
         xml:space="preserve"
         style="font-style:normal;font-weight:normal;font-size:8.46667px;line-height:1.25;font-family:sans-serif;letter-spacing:-0.529167px;fill:#21262e;fill-opacity:1;stroke:none;stroke-width:0.264583"
         x="7.2883182"
         y="28.893017"
         id="text5071"><tspan
           sodipodi:role="line"
           id="tspan5069"
           style="font-style:normal;font-variant:normal;font-weight:normal;font-stretch:normal;font-size:8.46667px;font-family:'Fantasque Sans Mono';-inkscape-font-specification:'Fantasque Sans Mono';fill:#21262e;fill-opacity:1;stroke-width:0.264583"
           x="7.2883182"
           y="28.893017">RESET</tspan></text>
    </g>
  </g>
</svg>
